<svg xmlns="http://www.w3.org/2000/svg" width="59" height="59" viewBox="0 0 59 59" fill="none">
						<path
							d="M26.4517 21.3629C25.9561 21.3629 25.4809 21.5598 25.1305 21.9101C24.7802 22.2605 24.5833 22.7357 24.5833 23.2312V51.3792C24.5833 52.4117 25.4192 53.2475 26.4517 53.2475C26.9187 53.2475 27.3121 53.1 27.6317 52.8542L32.3271 49.0438L36.4079 57.9429C36.7275 58.6067 37.3912 59 38.1042 59C38.3746 59 38.645 59 38.9154 58.8033L45.7004 55.6567C46.6346 55.2142 47.0771 54.0833 46.5854 53.1737L42.48 44.25L48.4046 43.1437C48.8116 43.038 49.1789 42.8159 49.4617 42.5046C50.1254 41.7179 50.0271 40.5625 49.1667 39.8496L27.6808 21.7808L27.6562 21.8054C27.32 21.5196 26.893 21.3627 26.4517 21.3629ZM36.875 24.5833V19.6667H49.1667V24.5833H36.875ZM33.9987 11.7017L40.9558 4.74458L44.4221 8.21083L37.465 15.1679L33.9987 11.7017ZM24.5833 0H29.5V12.2917H24.5833V0ZM9.66124 36.0392L16.6183 29.0821L20.0846 32.5483L13.1275 39.5054L9.66124 36.0392ZM9.66124 8.21083L13.1275 4.74458L20.0846 11.7017L16.6183 15.1679L9.66124 8.21083ZM17.2083 24.5833H4.91666V19.6667H17.2083V24.5833Z"
							fill="white"
						/>
					</svg>